<svg xmlns="http://www.w3.org/2000/svg" viewBox="0 0 310 72" width="310" height="72">
  <defs>
    <linearGradient id="bg-l" x1="0" y1="0" x2="1" y2="1">
      <stop offset="0%" stop-color="#eef2ff"/>
      <stop offset="100%" stop-color="#e0e7ff"/>
    </linearGradient>
    <linearGradient id="vg-l" x1="36" y1="16" x2="36" y2="52" gradientUnits="userSpaceOnUse">
      <stop offset="0%" stop-color="#6366f1"/>
      <stop offset="100%" stop-color="#3730a3"/>
    </linearGradient>
    <filter id="gl-l" x="-60%" y="-60%" width="220%" height="220%">
      <feGaussianBlur in="SourceGraphic" stdDeviation="2" result="b"/>
      <feMerge><feMergeNode in="b"/><feMergeNode in="SourceGraphic"/></feMerge>
    </filter>
  </defs>
  <rect x="2" y="2" width="68" height="68" rx="16" fill="url(#bg-l)"/>
  <rect x="2" y="2" width="68" height="68" rx="16" fill="none" stroke="#6366f1" stroke-width="1" stroke-opacity="0.4"/>
  <line x1="16" y1="18" x2="36" y2="52" stroke="url(#vg-l)" stroke-width="5.5" stroke-linecap="round" filter="url(#gl-l)"/>
  <line x1="56" y1="18" x2="36" y2="52" stroke="url(#vg-l)" stroke-width="5.5" stroke-linecap="round" filter="url(#gl-l)"/>
  <circle cx="16" cy="18" r="5" fill="#4f46e5" filter="url(#gl-l)"/>
  <circle cx="16" cy="18" r="3" fill="#6366f1"/>
  <line x1="11" y1="18" x2="6" y2="18" stroke="#4f46e5" stroke-width="1.2" stroke-opacity="0.6"/>
  <circle cx="5" cy="18" r="2" fill="#4f46e5" opacity="0.6"/>
  <circle cx="56" cy="18" r="5" fill="#4f46e5" filter="url(#gl-l)"/>
  <circle cx="56" cy="18" r="3" fill="#6366f1"/>
  <line x1="61" y1="18" x2="66" y2="18" stroke="#4f46e5" stroke-width="1.2" stroke-opacity="0.6"/>
  <circle cx="67" cy="18" r="2" fill="#4f46e5" opacity="0.6"/>
  <circle cx="36" cy="52" r="6.5" fill="#4f46e5" filter="url(#gl-l)"/>
  <circle cx="36" cy="52" r="4" fill="#6366f1"/>
  <circle cx="36" cy="52" r="1.8" fill="#ffffff" opacity="0.9"/>
  <line x1="36" y1="58.5" x2="36" y2="65" stroke="#4f46e5" stroke-width="1.2" stroke-opacity="0.4"/>
  <circle cx="36" cy="67" r="1.8" fill="#4f46e5" opacity="0.4"/>
  <text x="84" y="38"
    font-family="-apple-system, BlinkMacSystemFont, 'Segoe UI', Helvetica, Arial, sans-serif"
    font-size="28" font-weight="800" fill="#0f0f2e" letter-spacing="5">VRNDAI</text>
  <text x="86" y="55"
    font-family="-apple-system, BlinkMacSystemFont, 'Segoe UI', Helvetica, Arial, sans-serif"
    font-size="8.2" fill="#4f46e5" letter-spacing="1.6">VISION · REALIZED · DIGITAL · INNOVATION</text>
</svg>
