<svg xmlns="http://www.w3.org/2000/svg" viewBox="0 0 80 80" width="80" height="80">
  <defs>
    <linearGradient id="bg" x1="0" y1="0" x2="1" y2="1">
      <stop offset="0%" stop-color="#13133a"/>
      <stop offset="100%" stop-color="#07071a"/>
    </linearGradient>
    <linearGradient id="vg" x1="40" y1="18" x2="40" y2="56" gradientUnits="userSpaceOnUse">
      <stop offset="0%" stop-color="#a5b4fc"/>
      <stop offset="100%" stop-color="#4f46e5"/>
    </linearGradient>
    <filter id="gl" x="-60%" y="-60%" width="220%" height="220%">
      <feGaussianBlur in="SourceGraphic" stdDeviation="2.5" result="b"/>
      <feMerge><feMergeNode in="b"/><feMergeNode in="SourceGraphic"/></feMerge>
    </filter>
    <filter id="gl2" x="-80%" y="-80%" width="260%" height="260%">
      <feGaussianBlur in="SourceGraphic" stdDeviation="4" result="b"/>
      <feMerge><feMergeNode in="b"/><feMergeNode in="SourceGraphic"/></feMerge>
    </filter>
  </defs>
  <rect x="2" y="2" width="76" height="76" rx="19" fill="url(#bg)"/>
  <rect x="2" y="2" width="76" height="76" rx="19" fill="none" stroke="#6366f1" stroke-width="1" stroke-opacity="0.3"/>
  <line x1="18" y1="20" x2="40" y2="56" stroke="url(#vg)" stroke-width="6" stroke-linecap="round" filter="url(#gl)"/>
  <line x1="62" y1="20" x2="40" y2="56" stroke="url(#vg)" stroke-width="6" stroke-linecap="round" filter="url(#gl)"/>
  <circle cx="18" cy="20" r="5.5" fill="#6366f1" filter="url(#gl2)"/>
  <circle cx="18" cy="20" r="3.5" fill="#a5b4fc"/>
  <line x1="12.5" y1="20" x2="7" y2="20" stroke="#6366f1" stroke-width="1.5" stroke-opacity="0.6"/>
  <circle cx="6" cy="20" r="2.5" fill="#6366f1" opacity="0.6"/>
  <circle cx="62" cy="20" r="5.5" fill="#6366f1" filter="url(#gl2)"/>
  <circle cx="62" cy="20" r="3.5" fill="#a5b4fc"/>
  <line x1="67.5" y1="20" x2="73" y2="20" stroke="#6366f1" stroke-width="1.5" stroke-opacity="0.6"/>
  <circle cx="74" cy="20" r="2.5" fill="#6366f1" opacity="0.6"/>
  <circle cx="40" cy="56" r="7" fill="#6366f1" filter="url(#gl2)"/>
  <circle cx="40" cy="56" r="4.5" fill="#818cf8"/>
  <circle cx="40" cy="56" r="2" fill="#ffffff" opacity="0.9"/>
  <line x1="40" y1="63" x2="40" y2="70" stroke="#6366f1" stroke-width="1.5" stroke-opacity="0.45"/>
  <circle cx="40" cy="72.5" r="2" fill="#6366f1" opacity="0.45"/>
</svg>
